<svg xmlns="http://www.w3.org/2000/svg" viewBox="0 0 420 900" preserveAspectRatio="xMidYMid slice" width="420" height="900">
  <defs>
    <filter id="papel" x="0" y="0" width="100%" height="100%"><feTurbulence type="fractalNoise" baseFrequency="0.9" numOctaves="4" seed="101" result="n"/><feColorMatrix in="n" type="saturate" values="0"/></filter>
  </defs>
  <rect width="420" height="900" fill="#f0f9ff"/>
  <rect width="420" height="900" filter="url(#papel)" opacity="0.04"/>
  <g><line x1="6" y1="176" x2="6" y2="728" stroke="#7dd3fc" stroke-opacity="0.5" stroke-width="1"/><line x1="34" y1="176" x2="34" y2="728" stroke="#7dd3fc" stroke-opacity="0.35" stroke-width="1"/><line x1="56" y1="176" x2="56" y2="728" stroke="#7dd3fc" stroke-opacity="0.25" stroke-width="1"/><line x1="0" y1="210" x2="58" y2="210" stroke="#7dd3fc" stroke-opacity="0.3" stroke-width="1"/><line x1="0" y1="284" x2="58" y2="284" stroke="#7dd3fc" stroke-opacity="0.3" stroke-width="1"/><line x1="0" y1="358" x2="58" y2="358" stroke="#7dd3fc" stroke-opacity="0.3" stroke-width="1"/><line x1="0" y1="432" x2="58" y2="432" stroke="#7dd3fc" stroke-opacity="0.3" stroke-width="1"/><line x1="0" y1="506" x2="58" y2="506" stroke="#7dd3fc" stroke-opacity="0.3" stroke-width="1"/><line x1="0" y1="580" x2="58" y2="580" stroke="#7dd3fc" stroke-opacity="0.3" stroke-width="1"/><line x1="0" y1="654" x2="58" y2="654" stroke="#7dd3fc" stroke-opacity="0.3" stroke-width="1"/><path d="M34 420 C24 420 20 430 24 438 L34 452 L44 438 C48 430 44 420 34 420 Z" fill="#0369a1" fill-opacity="0.45"/><circle cx="34" cy="432" r="3.4" fill="#f0f9ff"/></g><g transform="translate(420 0) scale(-1 1)"><line x1="6" y1="176" x2="6" y2="728" stroke="#7dd3fc" stroke-opacity="0.5" stroke-width="1"/><line x1="34" y1="176" x2="34" y2="728" stroke="#7dd3fc" stroke-opacity="0.35" stroke-width="1"/><line x1="56" y1="176" x2="56" y2="728" stroke="#7dd3fc" stroke-opacity="0.25" stroke-width="1"/><line x1="0" y1="210" x2="58" y2="210" stroke="#7dd3fc" stroke-opacity="0.3" stroke-width="1"/><line x1="0" y1="284" x2="58" y2="284" stroke="#7dd3fc" stroke-opacity="0.3" stroke-width="1"/><line x1="0" y1="358" x2="58" y2="358" stroke="#7dd3fc" stroke-opacity="0.3" stroke-width="1"/><line x1="0" y1="432" x2="58" y2="432" stroke="#7dd3fc" stroke-opacity="0.3" stroke-width="1"/><line x1="0" y1="506" x2="58" y2="506" stroke="#7dd3fc" stroke-opacity="0.3" stroke-width="1"/><line x1="0" y1="580" x2="58" y2="580" stroke="#7dd3fc" stroke-opacity="0.3" stroke-width="1"/><line x1="0" y1="654" x2="58" y2="654" stroke="#7dd3fc" stroke-opacity="0.3" stroke-width="1"/><path d="M34 420 C24 420 20 430 24 438 L34 452 L44 438 C48 430 44 420 34 420 Z" fill="#0369a1" fill-opacity="0.45"/><circle cx="34" cy="432" r="3.4" fill="#f0f9ff"/></g>
  <line x1="120" y1="196" x2="300" y2="196" stroke="#0369a1" stroke-opacity="0.3" stroke-width="1.2"/>
  <circle cx="210" cy="196" r="3.6" fill="#0369a1" fill-opacity="0.4"/>
</svg>
