<svg xmlns="http://www.w3.org/2000/svg" viewBox="0 0 420 900" preserveAspectRatio="xMidYMid slice" width="420" height="900">
  <defs>
    <filter id="papel" x="0" y="0" width="100%" height="100%"><feTurbulence type="fractalNoise" baseFrequency="0.9" numOctaves="4" seed="105" result="n"/><feColorMatrix in="n" type="saturate" values="0"/></filter>
  </defs>
  <rect width="420" height="900" fill="#ffffff"/>
  <rect width="420" height="900" filter="url(#papel)" opacity="0.04"/>
  <g><path d="M4 178 L0 728 L16 728 Z" fill="#6b7280" fill-opacity="0.34"/><path d="M4 178 L22 728 L38 728 Z" fill="#6b7280" fill-opacity="0.27"/><path d="M4 178 L46 728 L62 728 Z" fill="#6b7280" fill-opacity="0.2"/><path d="M4 178 L72 728 L88 728 Z" fill="#6b7280" fill-opacity="0.13"/><path d="M4 178 L30 728 L36 728 Z" fill="#6b7280" fill-opacity="0.5"/><circle cx="8" cy="178" r="13" fill="#111111" fill-opacity="0.55"/><circle cx="8" cy="178" r="5" fill="#ffffff"/></g><g transform="translate(420 0) scale(-1 1)"><path d="M4 178 L0 728 L16 728 Z" fill="#6b7280" fill-opacity="0.34"/><path d="M4 178 L22 728 L38 728 Z" fill="#6b7280" fill-opacity="0.27"/><path d="M4 178 L46 728 L62 728 Z" fill="#6b7280" fill-opacity="0.2"/><path d="M4 178 L72 728 L88 728 Z" fill="#6b7280" fill-opacity="0.13"/><path d="M4 178 L30 728 L36 728 Z" fill="#6b7280" fill-opacity="0.5"/><circle cx="8" cy="178" r="13" fill="#111111" fill-opacity="0.55"/><circle cx="8" cy="178" r="5" fill="#ffffff"/></g>
  <line x1="140" y1="190" x2="280" y2="190" stroke="#111111" stroke-opacity="0.4" stroke-width="1.6"/>
  <circle cx="210" cy="190" r="3.6" fill="#111111" fill-opacity="0.4"/>
</svg>
