<svg xmlns="http://www.w3.org/2000/svg" viewBox="0 0 420 900" preserveAspectRatio="xMidYMid slice" width="420" height="900">
  <defs>
    <filter id="papel" x="0" y="0" width="100%" height="100%"><feTurbulence type="fractalNoise" baseFrequency="0.9" numOctaves="4" seed="47" result="n"/><feColorMatrix in="n" type="saturate" values="0"/></filter>
  </defs>
  <rect width="420" height="900" fill="#fffdf5"/>
  <rect width="420" height="900" filter="url(#papel)" opacity="0.05"/>
  <g><path d="M0 180 L26 194 L0 208 Z" fill="#1d4ed8" fill-opacity="0.2"/><path d="M0 234 L40 248 L0 262 Z" fill="#d62828" fill-opacity="0.28"/><path d="M0 288 L26 302 L0 316 Z" fill="#1d4ed8" fill-opacity="0.2"/><path d="M0 342 L40 356 L0 370 Z" fill="#d62828" fill-opacity="0.28"/><path d="M0 396 L26 410 L0 424 Z" fill="#1d4ed8" fill-opacity="0.2"/><path d="M0 450 L40 464 L0 478 Z" fill="#d62828" fill-opacity="0.28"/><path d="M0 504 L26 518 L0 532 Z" fill="#1d4ed8" fill-opacity="0.2"/><path d="M0 558 L40 572 L0 586 Z" fill="#d62828" fill-opacity="0.28"/><path d="M0 612 L26 626 L0 640 Z" fill="#1d4ed8" fill-opacity="0.2"/><path d="M0 666 L40 680 L0 694 Z" fill="#d62828" fill-opacity="0.28"/><path d="M0 720 L26 734 L0 748 Z" fill="#1d4ed8" fill-opacity="0.2"/></g><g transform="translate(420 0) scale(-1 1)"><path d="M0 180 L26 194 L0 208 Z" fill="#1d4ed8" fill-opacity="0.2"/><path d="M0 234 L40 248 L0 262 Z" fill="#d62828" fill-opacity="0.28"/><path d="M0 288 L26 302 L0 316 Z" fill="#1d4ed8" fill-opacity="0.2"/><path d="M0 342 L40 356 L0 370 Z" fill="#d62828" fill-opacity="0.28"/><path d="M0 396 L26 410 L0 424 Z" fill="#1d4ed8" fill-opacity="0.2"/><path d="M0 450 L40 464 L0 478 Z" fill="#d62828" fill-opacity="0.28"/><path d="M0 504 L26 518 L0 532 Z" fill="#1d4ed8" fill-opacity="0.2"/><path d="M0 558 L40 572 L0 586 Z" fill="#d62828" fill-opacity="0.28"/><path d="M0 612 L26 626 L0 640 Z" fill="#1d4ed8" fill-opacity="0.2"/><path d="M0 666 L40 680 L0 694 Z" fill="#d62828" fill-opacity="0.28"/><path d="M0 720 L26 734 L0 748 Z" fill="#1d4ed8" fill-opacity="0.2"/></g>
  <g fill="none" stroke="#d62828" stroke-opacity="0.4" stroke-width="1.6"><path d="M164 196 L196 184 L188 202 L216 194 L206 210 L244 200"/></g>
  <g fill="#1d4ed8" fill-opacity="0.3"><circle cx="150" cy="706" r="4"/><circle cx="210" cy="714" r="5"/><circle cx="270" cy="706" r="4"/></g>
</svg>
